<svg width="18" height="18" viewBox="0 0 18 18" fill="none" xmlns="http://www.w3.org/2000/svg">
<rect width="18" height="18" fill="#F5F5F5"/>
<g id="Findtrend Dev Desk" clip-path="url(#clip0_0_1)">
<rect width="1440" height="7214" transform="translate(-491 -665)" fill="white"/>
<g id="Hero Section">
<g id="Bg-hero">
<rect id="BG1" x="-491" y="-665" width="1440" height="900" fill="black"/>
<g id="Ornament">
</g>
</g>
<g id="btn-hero-socmed">
<g id="Group 9">
<g id="Rectangle 8" opacity="0.8" filter="url(#filter0_f_0_1)">
<rect x="-297" y="-2.19736" width="341.226" height="82" transform="rotate(-4 -297 -2.19736)" fill="black"/>
</g>
<rect id="Rectangle 1" x="-305" y="-10.1974" width="341.226" height="82" transform="rotate(-4 -305 -10.1974)" fill="#181818"/>
<rect id="Rectangle 7" x="-49.0444" y="-28.0955" width="84.6452" height="82" transform="rotate(-4 -49.0444 -28.0955)" fill="url(#paint0_linear_0_1)"/>
<g id="Group 1">
<rect id="Rectangle 8_2" width="2.64056" height="19.8042" rx="0.66129" transform="matrix(0.656053 -0.754715 0.754705 0.656065 0.889648 3.42957)" fill="white"/>
<rect id="Rectangle 9" width="2.64056" height="19.8042" rx="0.66129" transform="matrix(-0.754705 -0.656065 -0.656053 0.754715 16.7222 2.32263)" fill="white"/>
</g>
</g>
</g>
</g>
</g>
<defs>
<filter id="filter0_f_0_1" x="-307" y="-36.0001" width="366.115" height="125.603" filterUnits="userSpaceOnUse" color-interpolation-filters="sRGB">
<feFlood flood-opacity="0" result="BackgroundImageFix"/>
<feBlend mode="normal" in="SourceGraphic" in2="BackgroundImageFix" result="shape"/>
<feGaussianBlur stdDeviation="5" result="effect1_foregroundBlur_0_1"/>
</filter>
<linearGradient id="paint0_linear_0_1" x1="35.6007" y1="12.9045" x2="-49.0444" y2="12.9045" gradientUnits="userSpaceOnUse">
<stop offset="0.536458" stop-color="#181818"/>
<stop offset="1" stop-color="#181818" stop-opacity="0.8"/>
</linearGradient>
<clipPath id="clip0_0_1">
<rect width="1440" height="7214" fill="white" transform="translate(-491 -665)"/>
</clipPath>
</defs>
</svg>
